<svg width="151" height="41" viewBox="0 0 151 41" fill="none" xmlns="http://www.w3.org/2000/svg">
<g id="Group 10">
<g id="short OC">
<path d="M9.1662 14.6993H5.83304V4.28312C5.83304 3.65815 5.70284 3.22414 5.44243 2.9811C5.18203 2.73806 4.89558 2.61654 4.5831 2.61654C4.27062 2.61654 3.98417 2.73806 3.72377 2.9811C3.46337 3.22414 3.33316 3.65815 3.33316 4.28312C3.33316 6.14066 3.41997 7.85064 3.59357 9.41306C3.76717 10.9755 3.99285 12.4164 4.27062 13.7358C4.54838 15.0551 4.86086 16.2617 5.20807 17.3554C5.55527 18.4317 5.90248 19.4212 6.24968 20.324C6.52745 21.0357 6.83125 21.8603 7.16109 22.7978C7.5083 23.7353 7.82946 24.855 8.12459 26.157C8.41971 27.459 8.66275 28.978 8.85372 30.7141C9.06204 32.4501 9.1662 34.4726 9.1662 36.7815C9.1662 37.5106 9.036 38.1442 8.7756 38.6824C8.51519 39.2032 8.16799 39.6372 7.73398 39.9844C7.29998 40.3143 6.80521 40.5573 6.24968 40.7136C5.71151 40.8698 5.15599 40.9479 4.5831 40.9479C4.01021 40.9479 3.44601 40.8698 2.89048 40.7136C2.35231 40.5573 1.86622 40.3143 1.43222 39.9844C0.998213 39.6372 0.651009 39.2032 0.390605 38.6824C0.130202 38.1442 0 37.5106 0 36.7815V26.3653H3.33316V36.7815C3.33316 37.4064 3.46337 37.8404 3.72377 38.0835C3.98417 38.3265 4.27062 38.448 4.5831 38.448C4.89558 38.448 5.18203 38.3265 5.44243 38.0835C5.70284 37.8404 5.83304 37.4064 5.83304 36.7815C5.83304 34.542 5.7202 32.5803 5.49451 30.8963C5.28619 29.195 5.01711 27.7021 4.68726 26.4174C4.35742 25.1154 3.99285 23.9783 3.59357 23.0061C3.21164 22.0339 2.85576 21.1399 2.52591 20.324C2.19607 19.5254 1.8749 18.614 1.56242 17.5897C1.2673 16.5655 0.998213 15.4023 0.75517 14.1003C0.529487 12.7983 0.347205 11.34 0.208323 9.72555C0.0694409 8.09369 0 6.27954 0 4.28312C0 3.55399 0.130202 2.92902 0.390605 2.40821C0.651009 1.88741 0.998213 1.46208 1.43222 1.13224C1.86622 0.785031 2.35231 0.533308 2.89048 0.377066C3.44601 0.203463 4.01021 0.116662 4.5831 0.116662C5.15599 0.116662 5.71151 0.203463 6.24968 0.377066C6.80521 0.533308 7.29998 0.785031 7.73398 1.13224C8.16799 1.46208 8.51519 1.88741 8.7756 2.40821C9.036 2.92902 9.1662 3.55399 9.1662 4.28312V14.6993Z" fill="#222222"/>
<path d="M20.7656 0.533308H24.0988V40.5313H20.7656V21.1052H17.4324V40.5313H14.0993V0.533308H17.4324V18.5011H20.7656V0.533308Z" fill="#222222"/>
<path d="M39.0313 36.7815C39.0313 37.5106 38.8925 38.1442 38.6147 38.6824C38.3543 39.2032 37.9984 39.6372 37.5471 39.9844C37.0957 40.3316 36.5836 40.5834 36.0107 40.7396C35.4378 40.9132 34.8475 41 34.2399 41C33.5976 41 32.964 40.9045 32.339 40.7136C31.714 40.54 31.1585 40.2795 30.6724 39.9323C30.1863 39.5678 29.787 39.1251 29.4745 38.6043C29.1794 38.0661 29.0319 37.4585 29.0319 36.7815V4.28312C29.0319 3.62343 29.1794 3.04186 29.4745 2.53841C29.787 2.01761 30.1863 1.5836 30.6724 1.2364C31.1758 0.889192 31.7401 0.628789 32.365 0.455187C32.99 0.264224 33.6236 0.168743 34.266 0.168743C34.8736 0.168743 35.4638 0.255544 36.0367 0.429146C36.6096 0.585388 37.113 0.837112 37.5471 1.18432C37.9984 1.51416 38.3543 1.93949 38.6147 2.46029C38.8925 2.9811 39.0313 3.58871 39.0313 4.28312V36.7815ZM35.6982 4.28312C35.6982 3.69287 35.5506 3.27622 35.2555 3.03318C34.9777 2.77278 34.6479 2.64258 34.266 2.64258C34.0403 2.64258 33.8146 2.68598 33.5889 2.77278C33.3632 2.84222 33.1549 2.95506 32.964 3.1113C32.7903 3.25018 32.6428 3.42379 32.5213 3.63211C32.4171 3.82307 32.365 4.04007 32.365 4.28312V36.7815C32.365 37.0245 32.4171 37.2502 32.5213 37.4585C32.6428 37.6668 32.7903 37.8404 32.964 37.9793C33.1549 38.1182 33.3546 38.231 33.5629 38.3178C33.7886 38.3873 34.0142 38.422 34.2399 38.422C34.6219 38.422 34.9604 38.3005 35.2555 38.0574C35.5506 37.797 35.6982 37.3717 35.6982 36.7815V4.28312Z" fill="#222222"/>
<path d="M53.1306 17.1991C53.1306 18.0324 52.9223 18.6747 52.5057 19.1261C52.089 19.5775 51.4641 19.8986 50.6308 20.0896C51.4641 20.3153 52.089 20.6538 52.5057 21.1052C52.9223 21.5565 53.1306 22.1989 53.1306 23.0322V40.5313H49.7975V23.0322C49.7975 22.6155 49.7454 22.2944 49.6412 22.0687C49.5371 21.843 49.3808 21.6781 49.1725 21.5739C48.9642 21.4697 48.7038 21.409 48.3913 21.3916C48.0788 21.3743 47.7142 21.3656 47.2976 21.3656V40.5313H43.9644V0.533308H47.7142C48.8427 0.533308 49.8062 0.628789 50.6047 0.819752C51.4207 0.993354 52.0456 1.31452 52.4796 1.78324C52.9136 2.23461 53.1306 2.92902 53.1306 3.86647V17.1991ZM49.7975 4.69976C49.7975 4.28312 49.7454 3.96195 49.6412 3.73627C49.5371 3.51059 49.3808 3.34566 49.1725 3.2415C48.9642 3.13734 48.7038 3.07658 48.3913 3.05922C48.0788 3.04186 47.7142 3.03318 47.2976 3.03318V18.8657C47.7142 18.8657 48.0788 18.857 48.3913 18.8397C48.7038 18.8223 48.9642 18.7615 49.1725 18.6574C49.3808 18.5532 49.5371 18.3883 49.6412 18.1626C49.7454 17.9369 49.7975 17.6158 49.7975 17.1991V4.69976Z" fill="#222222"/>
<path d="M66.8133 0.533308V3.03318H63.4801V40.5313H60.1469V3.03318H56.8138V0.533308H66.8133Z" fill="#222222"/>
<path d="M113.415 40.9778C110.703 40.9778 108.536 40.4486 106.916 39.3902C105.295 38.3319 104.138 36.8271 103.443 34.8757C102.748 32.8914 102.401 30.5762 102.401 27.9304V12.7001C102.401 10.0543 102.748 7.78875 103.443 5.90358C104.171 3.98533 105.328 2.5301 106.916 1.53791C108.536 0.512636 110.703 0 113.415 0C116.127 0 118.276 0.512636 119.864 1.53791C121.451 2.56318 122.592 4.0184 123.287 5.90358C124.015 7.78875 124.378 10.0543 124.378 12.7001V27.98C124.378 30.5928 124.015 32.8748 123.287 34.8261C122.592 36.7775 121.451 38.2988 119.864 39.3902C118.276 40.4486 116.127 40.9778 113.415 40.9778ZM113.415 36.5625C114.903 36.5625 116.027 36.2648 116.788 35.6695C117.549 35.0411 118.061 34.1812 118.326 33.0898C118.591 31.9653 118.723 30.6589 118.723 29.1706V11.5591C118.723 10.0708 118.591 8.79749 118.326 7.73914C118.061 6.64773 117.549 5.82089 116.788 5.25865C116.027 4.66333 114.903 4.36567 113.415 4.36567C111.926 4.36567 110.785 4.66333 109.991 5.25865C109.231 5.82089 108.718 6.64773 108.454 7.73914C108.189 8.79749 108.057 10.0708 108.057 11.5591V29.1706C108.057 30.6589 108.189 31.9653 108.454 33.0898C108.718 34.1812 109.231 35.0411 109.991 35.6695C110.785 36.2648 111.926 36.5625 113.415 36.5625Z" fill="#6C9EFF"/>
<path d="M139.959 40.9778C137.115 40.9778 134.899 40.3824 133.311 39.1918C131.757 38.0012 130.665 36.3971 130.037 34.3797C129.442 32.3622 129.144 30.1132 129.144 27.6327V13.4443C129.144 10.7323 129.442 8.36753 130.037 6.35007C130.665 4.3326 131.757 2.77815 133.311 1.68673C134.899 0.562245 137.115 0 139.959 0C142.473 0 144.457 0.463025 145.912 1.38908C147.4 2.31513 148.459 3.63806 149.087 5.35787C149.749 7.07768 150.079 9.14476 150.079 11.5591V14.7341H144.771V11.9064C144.771 10.4181 144.688 9.11168 144.523 7.98719C144.391 6.82963 143.994 5.93665 143.332 5.30826C142.671 4.67987 141.563 4.36567 140.009 4.36567C138.421 4.36567 137.263 4.71294 136.536 5.40748C135.808 6.06894 135.329 7.02807 135.097 8.28485C134.899 9.50856 134.8 10.9472 134.8 12.6009V28.5257C134.8 30.5431 134.965 32.1472 135.296 33.3378C135.626 34.4954 136.172 35.3222 136.933 35.8183C137.693 36.3144 138.719 36.5625 140.009 36.5625C141.53 36.5625 142.621 36.2318 143.283 35.5703C143.944 34.8757 144.358 33.9332 144.523 32.7425C144.688 31.5519 144.771 30.1628 144.771 28.5753V25.5987H150.079V28.5753C150.079 31.0227 149.782 33.189 149.186 35.0742C148.591 36.9263 147.566 38.3815 146.111 39.4399C144.655 40.4651 142.605 40.9778 139.959 40.9778Z" fill="#6C9EFF"/>
</g>
<g id="Vector">
<path d="M90.5 23.9167C90.5 24.3698 90.363 24.8043 90.1192 25.1247C89.8755 25.4451 89.5448 25.6251 89.2 25.6251H78.8C78.4552 25.6251 78.1246 25.4451 77.8808 25.1247C77.637 24.8043 77.5 24.3698 77.5 23.9167C77.5 23.4636 77.637 23.0291 77.8808 22.7087C78.1246 22.3884 78.4552 22.2084 78.8 22.2084H89.2C89.5448 22.2084 89.8755 22.3884 90.1192 22.7087C90.363 23.0291 90.5 23.4636 90.5 23.9167ZM85.3 29.0417H78.8C78.4552 29.0417 78.1246 29.2217 77.8808 29.5421C77.637 29.8624 77.5 30.297 77.5 30.75C77.5 31.2031 77.637 31.6377 77.8808 31.958C78.1246 32.2784 78.4552 32.4584 78.8 32.4584H85.3C85.6448 32.4584 85.9755 32.2784 86.2193 31.958C86.463 31.6377 86.6 31.2031 86.6 30.75C86.6 30.297 86.463 29.8624 86.2193 29.5421C85.9755 29.2217 85.6448 29.0417 85.3 29.0417ZM97 17.9119V32.4584C96.9979 34.7229 96.3125 36.894 95.0939 38.4953C93.8754 40.0965 92.2233 40.9973 90.5 41H77.5C75.7768 40.9973 74.1247 40.0965 72.9061 38.4953C71.6876 36.894 71.0021 34.7229 71 32.4584V8.54174C71.0021 6.27718 71.6876 4.10615 72.9061 2.50487C74.1247 0.903583 75.7768 0.00278959 77.5 7.69982e-05H83.3695C84.565 -0.0039665 85.7493 0.303456 86.8538 0.904569C87.9583 1.50568 88.9612 2.38856 89.8045 3.50216L94.3337 9.4574C95.1816 10.5648 95.8539 11.8823 96.3116 13.3336C96.7692 14.7848 97.0032 16.341 97 17.9119ZM87.4048 6.30777C86.9956 5.787 87.0978 5.90842 86.6 5.54468V11.9584C86.6 12.4115 86.737 12.846 86.9808 13.1664C87.2246 13.4867 87.5552 13.877 87.9 13.877H92.6667C92.3897 13.223 92.4446 13.1521 92.0476 12.6155L87.4048 6.30777ZM93.2857 17.977C93.2857 17.6951 93.3052 17.3076 93.2857 17.0308L87.9 17.0834C86.8657 17.0834 85.8737 16.5434 85.1423 15.5823C84.4109 14.6212 84 13.3176 84 11.9584V4.51608C83.7894 4.49045 83.5942 4.41542 83.381 4.41542H77.5C76.4657 4.41542 76.5714 4.41546 75.6429 5.04623C74.7143 5.99238 74.7143 7.15623 74.7143 8.51546V32.4584C74.7143 33.8176 74.6019 34.362 75.3333 35.3232C76.0647 36.2843 76.4657 36.5847 77.5 36.5847H90.5C91.5343 36.5847 91.8227 36.4985 92.6667 35.6385C93.2857 35.0078 93.2857 33.8176 93.2857 32.4584V17.977Z" fill="#6C9EFF"/>
<path d="M90.5 23.9167C90.5 24.3698 90.363 24.8043 90.1192 25.1247C89.8755 25.4451 89.5448 25.6251 89.2 25.6251H78.8C78.4552 25.6251 78.1246 25.4451 77.8808 25.1247C77.637 24.8043 77.5 24.3698 77.5 23.9167C77.5 23.4636 77.637 23.0291 77.8808 22.7087C78.1246 22.3884 78.4552 22.2084 78.8 22.2084H89.2C89.5448 22.2084 89.8755 22.3884 90.1192 22.7087C90.363 23.0291 90.5 23.4636 90.5 23.9167ZM85.3 29.0417H78.8C78.4552 29.0417 78.1246 29.2217 77.8808 29.5421C77.637 29.8624 77.5 30.297 77.5 30.75C77.5 31.2031 77.637 31.6377 77.8808 31.958C78.1246 32.2784 78.4552 32.4584 78.8 32.4584H85.3C85.6448 32.4584 85.9755 32.2784 86.2193 31.958C86.463 31.6377 86.6 31.2031 86.6 30.75C86.6 30.297 86.463 29.8624 86.2193 29.5421C85.9755 29.2217 85.6448 29.0417 85.3 29.0417ZM97 17.9119V32.4584C96.9979 34.7229 96.3125 36.894 95.0939 38.4953C93.8754 40.0965 92.2233 40.9973 90.5 41H77.5C75.7768 40.9973 74.1247 40.0965 72.9061 38.4953C71.6876 36.894 71.0021 34.7229 71 32.4584V8.54174C71.0021 6.27718 71.6876 4.10615 72.9061 2.50487C74.1247 0.903583 75.7768 0.00278959 77.5 7.69982e-05H83.3695C84.565 -0.0039665 85.7493 0.303456 86.8538 0.904569C87.9583 1.50568 88.9612 2.38856 89.8045 3.50216L94.3337 9.4574C95.1816 10.5648 95.8539 11.8823 96.3116 13.3336C96.7692 14.7848 97.0032 16.341 97 17.9119ZM87.4048 6.30777C86.9956 5.787 87.0978 5.90842 86.6 5.54468V11.9584C86.6 12.4115 86.737 12.846 86.9808 13.1664C87.2246 13.4867 87.5552 13.877 87.9 13.877H92.6667C92.3897 13.223 92.4446 13.1521 92.0476 12.6155L87.4048 6.30777ZM93.2857 17.977C93.2857 17.6951 93.3052 17.3076 93.2857 17.0308L87.9 17.0834C86.8657 17.0834 85.8737 16.5434 85.1423 15.5823C84.4109 14.6212 84 13.3176 84 11.9584V4.51608C83.7894 4.49045 83.5942 4.41542 83.381 4.41542H77.5C76.4657 4.41542 76.5714 4.41546 75.6429 5.04623C74.7143 5.99238 74.7143 7.15623 74.7143 8.51546V32.4584C74.7143 33.8176 74.6019 34.362 75.3333 35.3232C76.0647 36.2843 76.4657 36.5847 77.5 36.5847H90.5C91.5343 36.5847 91.8227 36.4985 92.6667 35.6385C93.2857 35.0078 93.2857 33.8176 93.2857 32.4584V17.977Z" fill="#6C9EFF"/>
</g>
</g>
</svg>
