<svg width="80" height="80" viewBox="0 0 80 80" fill="none" xmlns="http://www.w3.org/2000/svg">
<path fill-rule="evenodd" clip-rule="evenodd" d="M46.4852 42.9666C47.4423 43.9333 48.9934 43.9333 49.9505 42.9666C50.9406 42 50.9406 40.4333 49.9835 39.4666L40.5116 29.8666C40.2806 29.6333 40.0165 29.4666 39.7195 29.3333C39.4225 29.2 39.1254 29.1333 38.7954 29.1333C38.4654 29.1333 38.1353 29.2 37.8383 29.3333C37.5413 29.4666 37.2773 29.6333 37.0462 29.8666L27.6073 39.4666C26.6502 40.4333 26.6502 42 27.6073 42.9666C28.5644 43.9333 30.1155 43.9333 31.0726 42.9666L36.3202 37.6333V53.7333C36.3202 55.1 37.4093 56.2 38.7954 56.2C40.1485 56.2 41.2376 55.1 41.2376 53.7333V37.6333L46.4852 42.9666ZM64.4272 30.0851C65.2029 30.0761 66.0476 30.0664 66.8151 30.0664C67.6402 30.0664 68.3333 30.733 68.3333 31.5664V58.3664C68.3333 66.633 61.6666 73.333 53.4818 73.333H27.2442C18.6303 73.333 11.6666 66.2997 11.6666 57.633V21.6997C11.6666 13.433 18.3003 6.66638 26.5511 6.66638H44.1749C45 6.66638 45.693 7.36638 45.693 8.19971V18.933C45.693 25.033 50.6435 30.033 56.7161 30.0664C58.1043 30.0664 59.3367 30.0769 60.4193 30.0861C61.2671 30.0933 62.023 30.0997 62.6897 30.0997C63.1595 30.0997 63.7685 30.0927 64.4272 30.0851ZM65.3485 25.2197C62.6357 25.2297 59.441 25.2197 57.1406 25.1964C53.4905 25.1964 50.4839 22.1597 50.4839 18.473V9.68637C50.4839 8.2497 52.2066 7.53637 53.1934 8.57304C55.7347 11.2394 59.6249 15.3254 62.9131 18.7793C64.2454 20.1787 65.4789 21.4744 66.4839 22.5297C67.4443 23.5397 66.738 25.2164 65.3485 25.2197Z" fill="#6C9EFF"/>
</svg>
