<svg width="512" height="512" viewBox="0 0 512 512" fill="none" xmlns="http://www.w3.org/2000/svg">
<rect width="512" height="512" rx="70" fill="#6C9EFF"/>
<path d="M342 288.667C342 292.999 340.188 297.153 336.962 300.216C333.736 303.279 329.361 305 324.8 305H187.2C182.638 305 178.263 303.279 175.038 300.216C171.812 297.153 170 292.999 170 288.667C170 284.335 171.812 280.181 175.038 277.117C178.263 274.054 182.638 272.334 187.2 272.334H324.8C329.361 272.334 333.736 274.054 336.962 277.117C340.188 280.181 342 284.335 342 288.667ZM273.2 337.667H187.2C182.638 337.667 178.263 339.388 175.038 342.451C171.812 345.514 170 349.668 170 354C170 358.332 171.812 362.486 175.038 365.55C178.263 368.613 182.638 370.333 187.2 370.333H273.2C277.762 370.333 282.136 368.613 285.362 365.55C288.588 362.486 290.4 358.332 290.4 354C290.4 349.668 288.588 345.514 285.362 342.451C282.136 339.388 277.762 337.667 273.2 337.667ZM428 231.255V370.333C427.972 391.985 418.903 412.742 402.781 428.052C386.658 443.362 364.8 451.974 342 452H170C147.2 451.974 125.341 443.362 109.219 428.052C93.0968 412.742 84.0273 391.985 84 370.333V141.667C84.0273 120.016 93.0968 99.2584 109.219 83.9486C125.341 68.6388 147.2 60.0263 170 60.0004H247.658C263.475 59.9617 279.144 62.901 293.758 68.6482C308.371 74.3954 321.641 82.8366 332.798 93.4837L392.722 150.422C403.941 161.01 412.835 173.606 418.891 187.482C424.946 201.357 428.042 216.235 428 231.255ZM301.047 120.308C295.634 115.329 296.986 116.49 290.4 113.012V174.334C290.4 178.665 292.212 182.82 295.438 185.883C298.663 188.946 303.038 192.677 307.6 192.677H370.666C367.002 186.425 367.728 185.747 362.476 180.616L301.047 120.308ZM378.857 231.877C378.857 229.182 379.115 225.477 378.857 222.831L307.6 223.334C293.915 223.334 280.79 218.171 271.113 208.982C261.436 199.793 256 187.329 256 174.334V103.178C253.213 102.933 250.63 102.215 247.81 102.215H170C156.315 102.215 157.714 102.216 145.428 108.247C133.142 117.293 133.142 128.42 133.142 141.416V370.333C133.142 383.329 131.656 388.534 141.333 397.723C151.01 406.913 156.315 409.785 170 409.785H342C355.685 409.785 359.499 408.961 370.666 400.739C378.857 394.708 378.857 383.329 378.857 370.333V231.877Z" fill="white"/>
<path d="M342 288.667C342 292.999 340.188 297.153 336.962 300.216C333.736 303.279 329.361 305 324.8 305H187.2C182.638 305 178.263 303.279 175.038 300.216C171.812 297.153 170 292.999 170 288.667C170 284.335 171.812 280.181 175.038 277.117C178.263 274.054 182.638 272.334 187.2 272.334H324.8C329.361 272.334 333.736 274.054 336.962 277.117C340.188 280.181 342 284.335 342 288.667ZM273.2 337.667H187.2C182.638 337.667 178.263 339.388 175.038 342.451C171.812 345.514 170 349.668 170 354C170 358.332 171.812 362.486 175.038 365.55C178.263 368.613 182.638 370.333 187.2 370.333H273.2C277.762 370.333 282.136 368.613 285.362 365.55C288.588 362.486 290.4 358.332 290.4 354C290.4 349.668 288.588 345.514 285.362 342.451C282.136 339.388 277.762 337.667 273.2 337.667ZM428 231.255V370.333C427.972 391.985 418.903 412.742 402.781 428.052C386.658 443.362 364.8 451.974 342 452H170C147.2 451.974 125.341 443.362 109.219 428.052C93.0968 412.742 84.0273 391.985 84 370.333V141.667C84.0273 120.016 93.0968 99.2584 109.219 83.9486C125.341 68.6388 147.2 60.0263 170 60.0004H247.658C263.475 59.9617 279.144 62.901 293.758 68.6482C308.371 74.3954 321.641 82.8366 332.798 93.4837L392.722 150.422C403.941 161.01 412.835 173.606 418.891 187.482C424.946 201.357 428.042 216.235 428 231.255ZM301.047 120.308C295.634 115.329 296.986 116.49 290.4 113.012V174.334C290.4 178.665 292.212 182.82 295.438 185.883C298.663 188.946 303.038 192.677 307.6 192.677H370.666C367.002 186.425 367.728 185.747 362.476 180.616L301.047 120.308ZM378.857 231.877C378.857 229.182 379.115 225.477 378.857 222.831L307.6 223.334C293.915 223.334 280.79 218.171 271.113 208.982C261.436 199.793 256 187.329 256 174.334V103.178C253.213 102.933 250.63 102.215 247.81 102.215H170C156.315 102.215 157.714 102.216 145.428 108.247C133.142 117.293 133.142 128.42 133.142 141.416V370.333C133.142 383.329 131.656 388.534 141.333 397.723C151.01 406.913 156.315 409.785 170 409.785H342C355.685 409.785 359.499 408.961 370.666 400.739C378.857 394.708 378.857 383.329 378.857 370.333V231.877Z" fill="white"/>
</svg>
